<svg width="10" height="16" viewBox="0 0 10 16" fill="none" xmlns="http://www.w3.org/2000/svg">
<path d="M0 8.88128C0 9.03334 0.0513852 9.16006 0.154155 9.26144C0.256926 9.35821 0.384272 9.40659 0.536193 9.40659H4.49732L2.41957 15.1159C2.34808 15.314 2.33467 15.4845 2.37936 15.6274C2.42851 15.7702 2.51117 15.8739 2.62735 15.9384C2.74352 16.0029 2.8731 16.0168 3.01609 15.9799C3.16354 15.943 3.29982 15.844 3.42493 15.6827L9.81233 7.59565C9.93744 7.43437 10 7.27309 10 7.11181C10 6.95975 9.94862 6.83533 9.84585 6.73856C9.74754 6.63719 9.6202 6.5865 9.46381 6.5865H5.50938L7.58043 0.877194C7.65639 0.679051 7.6698 0.510859 7.62064 0.372619C7.57596 0.229771 7.49553 0.126091 7.37936 0.0615795C7.26318 -0.00293236 7.13137 -0.0167563 6.98391 0.0201076C6.84093 0.0569715 6.70688 0.153739 6.58177 0.310411L0.19437 8.40435C0.06479 8.56563 0 8.72461 0 8.88128Z" fill="#FFCC00"/>
</svg>
