<svg width="18" height="25" viewBox="0 0 18 25" fill="none" xmlns="http://www.w3.org/2000/svg">
<path d="M1 5.19003C1 3.72352 1 2.99026 1.29067 2.42985C1.54633 1.93712 1.95426 1.53651 2.456 1.28545C3.02667 1 3.77333 1 5.26667 1H12.7333C14.2267 1 14.9733 1 15.544 1.28545C16.0457 1.53651 16.4537 1.93712 16.7093 2.42985C17 2.99026 17 3.72352 17 5.19003V22.6114C17 23.2477 17 23.5659 16.8653 23.7401C16.8071 23.8158 16.7329 23.8782 16.6477 23.923C16.5625 23.9677 16.4684 23.9938 16.372 23.9993C16.1493 24.0124 15.88 23.8356 15.3413 23.4834L9 19.3314L2.65867 23.4821C2.12 23.8356 1.85067 24.0124 1.62667 23.9993C1.53045 23.9936 1.43664 23.9675 1.3517 23.9227C1.26676 23.878 1.19271 23.8156 1.13467 23.7401C1 23.5659 1 23.2477 1 22.6114V5.19003Z" stroke="black" stroke-opacity="0.5" stroke-width="1.5" stroke-linecap="round" stroke-linejoin="round"/>
</svg>
