<svg width="22" height="19" viewBox="0 0 22 19" fill="none" xmlns="http://www.w3.org/2000/svg">
<path d="M18.414 11.4139C20 9.8279 21 8.4999 21 6.4999C21 5.3871 20.6624 4.30048 20.0319 3.38356C19.4013 2.46664 18.5075 1.76256 17.4684 1.3643C16.4293 0.96604 15.2938 0.892344 14.212 1.15294C13.1301 1.41354 12.1528 1.99618 11.409 2.8239M18.414 11.4139C18.2168 11.6112 17.9826 11.7676 17.7249 11.8744C17.4672 11.9812 17.191 12.0361 16.912 12.0361C16.633 12.0361 16.3568 11.9812 16.0991 11.8744C15.8414 11.7676 15.6072 11.6112 15.41 11.4139C15.6235 11.607 15.7956 11.8415 15.9157 12.1032C16.0358 12.3648 16.1015 12.6482 16.1087 12.936C16.116 13.2238 16.0646 13.5101 15.9578 13.7774C15.851 14.0448 15.6909 14.2876 15.4873 14.4912C15.2837 14.6948 15.0409 14.8549 14.7735 14.9617C14.5062 15.0685 14.2199 15.1199 13.9321 15.1126C13.6443 15.1054 13.3609 15.0397 13.0993 14.9196C12.8376 14.7995 12.6031 14.6274 12.41 14.4139C12.6074 14.6105 12.7641 14.8441 12.8712 15.1014C12.9782 15.3586 13.0335 15.6344 13.0339 15.9131C13.0342 16.1917 12.9797 16.4677 12.8733 16.7252C12.767 16.9827 12.6109 17.2167 12.414 17.4139C12.224 17.604 11.9976 17.7538 11.7484 17.8544C11.4991 17.9551 11.2322 18.0044 10.9635 17.9996C10.6947 17.9947 10.4297 17.9358 10.1843 17.8262C9.93886 17.7166 9.71804 17.5587 9.535 17.3619L4 11.9999C2.5 10.4999 1 8.7999 1 6.4999C1.00022 5.38719 1.33794 4.30071 1.96856 3.38395C2.59917 2.46718 3.49303 1.76325 4.53208 1.36512C5.57112 0.966986 6.7065 0.893373 7.78826 1.154C8.87002 1.41463 9.84728 1.99724 10.591 2.8249C10.7022 2.92823 10.8484 2.98559 11.0002 2.9854C11.152 2.98522 11.2981 2.92751 11.409 2.8239M18.414 11.4139C18.7889 11.0388 18.9996 10.5302 18.9996 9.9999C18.9996 9.46957 18.7889 8.96096 18.414 8.5859L16.533 6.7039C16.3092 6.48 16.0435 6.30239 15.751 6.18121C15.4585 6.06003 15.1451 5.99766 14.8285 5.99766C14.5119 5.99766 14.1985 6.06003 13.906 6.18121C13.6135 6.30239 13.3478 6.48 13.124 6.7039L11.414 8.4139C11.0389 8.78884 10.5303 8.99947 10 8.99947C9.46967 8.99947 8.96106 8.78884 8.586 8.4139C8.21106 8.03884 8.00043 7.53023 8.00043 6.9999C8.00043 6.46957 8.21106 5.96096 8.586 5.5859L11.409 2.8239" stroke="#FFF8F8" stroke-width="1.5" stroke-linecap="round" stroke-linejoin="round"/>
</svg>
