<svg width="18" height="18" viewBox="0 0 18 18" fill="none" xmlns="http://www.w3.org/2000/svg">
<path fill-rule="evenodd" clip-rule="evenodd" d="M2.6 4.2C3.02435 4.2 3.43131 4.03143 3.73137 3.73137C4.03143 3.43131 4.2 3.02435 4.2 2.6C4.2 2.17565 4.03143 1.76869 3.73137 1.46863C3.43131 1.16857 3.02435 1 2.6 1C2.17565 1 1.76869 1.16857 1.46863 1.46863C1.16857 1.76869 1 2.17565 1 2.6C1 3.02435 1.16857 3.43131 1.46863 3.73137C1.76869 4.03143 2.17565 4.2 2.6 4.2ZM3.4 16.2C4.03652 16.2 4.64697 15.9471 5.09706 15.4971C5.54714 15.047 5.8 14.4365 5.8 13.8C5.8 13.1635 5.54714 12.553 5.09706 12.1029C4.64697 11.6529 4.03652 11.4 3.4 11.4C2.76348 11.4 2.15303 11.6529 1.70294 12.1029C1.25286 12.553 1 13.1635 1 13.8C1 14.4365 1.25286 15.047 1.70294 15.4971C2.15303 15.9471 2.76348 16.2 3.4 16.2ZM14.6 17C15.2365 17 15.847 16.7471 16.2971 16.2971C16.7471 15.847 17 15.2365 17 14.6C17 13.9635 16.7471 13.353 16.2971 12.9029C15.847 12.4529 15.2365 12.2 14.6 12.2C13.9635 12.2 13.353 12.4529 12.9029 12.9029C12.4529 13.353 12.2 13.9635 12.2 14.6C12.2 15.2365 12.4529 15.847 12.9029 16.2971C13.353 16.7471 13.9635 17 14.6 17ZM8.2 10.6C9.04869 10.6 9.86263 10.2629 10.4627 9.66274C11.0629 9.06263 11.4 8.24869 11.4 7.4C11.4 6.55131 11.0629 5.73737 10.4627 5.13726C9.86263 4.53714 9.04869 4.2 8.2 4.2C7.35131 4.2 6.53737 4.53714 5.93726 5.13726C5.33714 5.73737 5 6.55131 5 7.4C5 8.24869 5.33714 9.06263 5.93726 9.66274C6.53737 10.2629 7.35131 10.6 8.2 10.6ZM13 4.2C13.4243 4.2 13.8313 4.03143 14.1314 3.73137C14.4314 3.43131 14.6 3.02435 14.6 2.6C14.6 2.17565 14.4314 1.76869 14.1314 1.46863C13.8313 1.16857 13.4243 1 13 1C12.5757 1 12.1687 1.16857 11.8686 1.46863C11.5686 1.76869 11.4 2.17565 11.4 2.6C11.4 3.02435 11.5686 3.43131 11.8686 3.73137C12.1687 4.03143 12.5757 4.2 13 4.2Z" fill="#909090" stroke="#909090" stroke-width="2" stroke-linecap="round" stroke-linejoin="round"/>
<path d="M3.80005 3.7998L5.40005 5.3998L3.80005 3.7998ZM11.4 4.1998L10.6 4.9998L11.4 4.1998ZM13 12.7998L10.6 9.7998L13 12.7998ZM5.00005 11.7998L6.60005 10.1998L5.00005 11.7998Z" fill="#909090"/>
<path d="M3.80005 3.7998L5.40005 5.3998M11.4 4.1998L10.6 4.9998M13 12.7998L10.6 9.7998M5.00005 11.7998L6.60005 10.1998" stroke="#909090" stroke-width="2" stroke-linecap="round" stroke-linejoin="round"/>
</svg>
