<svg width="18" height="20" viewBox="0 0 18 20" fill="none" xmlns="http://www.w3.org/2000/svg">
<path d="M1.66699 2.66683V17.3335C1.66699 17.8197 1.86015 18.286 2.20396 18.6299C2.54778 18.9737 3.0141 19.1668 3.50033 19.1668H14.5003C14.9866 19.1668 15.4529 18.9737 15.7967 18.6299C16.1405 18.286 16.3337 17.8197 16.3337 17.3335V6.647C16.3336 6.40276 16.2848 6.16099 16.19 5.93589C16.0953 5.71078 15.9565 5.50688 15.7818 5.33616L11.7118 1.356C11.3693 1.0211 10.9093 0.833556 10.4303 0.833496H3.50033C3.0141 0.833496 2.54778 1.02665 2.20396 1.37047C1.86015 1.71428 1.66699 2.1806 1.66699 2.66683Z" stroke="#FFF8F8" stroke-width="1.5" stroke-linecap="round" stroke-linejoin="round"/>
<path d="M10.834 0.833496V4.50016C10.834 4.98639 11.0271 5.45271 11.371 5.79653C11.7148 6.14034 12.1811 6.3335 12.6673 6.3335H16.334" stroke="#FFF8F8" stroke-width="1.5" stroke-linejoin="round"/>
</svg>
