<svg width="19" height="21" viewBox="0 0 19 21" fill="none" xmlns="http://www.w3.org/2000/svg">
<path d="M1.625 19.5V18.375C1.625 16.2864 2.45469 14.2834 3.93153 12.8065C5.40838 11.3297 7.41142 10.5 9.5 10.5M9.5 10.5C11.5886 10.5 13.5916 11.3297 15.0685 12.8065C16.5453 14.2834 17.375 16.2864 17.375 18.375V19.5M9.5 10.5C10.6935 10.5 11.8381 10.0259 12.682 9.18198C13.5259 8.33807 14 7.19347 14 6C14 4.80653 13.5259 3.66193 12.682 2.81802C11.8381 1.97411 10.6935 1.5 9.5 1.5C8.30653 1.5 7.16193 1.97411 6.31802 2.81802C5.47411 3.66193 5 4.80653 5 6C5 7.19347 5.47411 8.33807 6.31802 9.18198C7.16193 10.0259 8.30653 10.5 9.5 10.5Z" stroke="#FFF8F8" stroke-width="1.5" stroke-linecap="round" stroke-linejoin="round"/>
</svg>
