<svg width="19" height="19" viewBox="0 0 19 19" fill="none" xmlns="http://www.w3.org/2000/svg">
<path d="M17.667 17.8335L13.4483 13.6148M13.4483 13.6148C14.1254 12.9377 14.6625 12.1338 15.029 11.2491C15.3955 10.3644 15.5841 9.41615 15.5841 8.45854C15.5841 7.50094 15.3955 6.55271 15.029 5.668C14.6625 4.78329 14.1254 3.97942 13.4483 3.30229C12.7712 2.62516 11.9673 2.08804 11.0826 1.72158C10.1979 1.35512 9.24964 1.1665 8.29204 1.1665C7.33443 1.1665 6.38621 1.35512 5.5015 1.72158C4.61679 2.08804 3.81292 2.62516 3.13579 3.30229C1.76827 4.66982 1 6.52457 1 8.45854C1 10.3925 1.76827 12.2473 3.13579 13.6148C4.50331 14.9823 6.35807 15.7506 8.29204 15.7506C10.226 15.7506 12.0808 14.9823 13.4483 13.6148Z" stroke="black" stroke-width="1.5" stroke-linecap="round" stroke-linejoin="round"/>
</svg>
