<svg width="24" height="24" viewBox="0 0 24 24" fill="none" xmlns="http://www.w3.org/2000/svg">
<path d="M20.1602 7.28809V16.7109L12 21.4229L3.83984 16.7109V7.28809L12 2.57617L20.1602 7.28809ZM15.5 12C15.5 12.9282 15.1309 13.8182 14.4746 14.4746C13.8183 15.131 12.9282 15.5 12 15.5C11.0718 15.5 10.1818 15.1309 9.52539 14.4746C8.86901 13.8182 8.5 12.9283 8.5 12C8.5 11.0717 8.86901 10.1818 9.52539 9.52539C10.1818 8.86906 11.0718 8.5 12 8.5C12.9282 8.50004 13.8183 8.86905 14.4746 9.52539C15.1309 10.1818 15.5 11.0718 15.5 12ZM16.5 12C16.5 10.8066 16.0255 9.66227 15.1816 8.81836C14.3378 7.97448 13.1934 7.50004 12 7.5C10.8065 7.5 9.6613 7.97445 8.81738 8.81836C7.97373 9.66223 7.5 10.8067 7.5 12C7.5 13.1933 7.97373 14.3378 8.81738 15.1816C9.6613 16.0256 10.8065 16.5 12 16.5C13.1934 16.5 14.3378 16.0255 15.1816 15.1816C16.0255 14.3377 16.5 13.1934 16.5 12Z" stroke="#FFF8F8"/>
<path d="M12 8.5C12.9283 8.5 13.8182 8.86901 14.4746 9.52539C15.131 10.1818 15.5 11.0717 15.5 12C15.5 12.9283 15.131 13.8182 14.4746 14.4746C13.8182 15.131 12.9283 15.5 12 15.5C11.0717 15.5 10.1818 15.131 9.52539 14.4746C8.86901 13.8182 8.5 12.9283 8.5 12C8.5 11.0717 8.86901 10.1818 9.52539 9.52539C10.1407 8.9101 10.9612 8.54688 11.8262 8.50391L12 8.5Z" stroke="#FFF8F8"/>
<path d="M11.9998 2L20.6598 7V17L11.9998 22L3.33984 17V7L11.9998 2Z" stroke="#FFF8F8" stroke-width="2" stroke-linecap="square"/>
<path d="M16 12C16 13.0609 15.5786 14.0783 14.8284 14.8284C14.0783 15.5786 13.0609 16 12 16C10.9391 16 9.92172 15.5786 9.17157 14.8284C8.42143 14.0783 8 13.0609 8 12C8 10.9391 8.42143 9.92172 9.17157 9.17157C9.92172 8.42143 10.9391 8 12 8C13.0609 8 14.0783 8.42143 14.8284 9.17157C15.5786 9.92172 16 10.9391 16 12Z" stroke="#FFF8F8" stroke-width="2" stroke-linecap="square"/>
</svg>
